<?xml version="1.0" ?><svg height="120" id="svg4254" version="1.1" viewBox="0 0 120 120" width="120" xmlns="http://www.w3.org/2000/svg" xmlns:cc="http://creativecommons.org/ns#" xmlns:dc="http://purl.org/dc/elements/1.1/" xmlns:rdf="http://www.w3.org/1999/02/22-rdf-syntax-ns#" xmlns:svg="http://www.w3.org/2000/svg"><defs id="defs4256"/><path d="M 112.61327,59.999937 A 52.613299,52.613221 0 0 1 59.999973,112.61316 52.613299,52.613221 0 0 1 7.3866746,59.999937 52.613299,52.613221 0 0 1 59.999973,7.3867164 52.613299,52.613221 0 0 1 112.61327,59.999937 Z" id="circle15471" style="opacity:1;fill:#80deea;fill-opacity:1;stroke:none;stroke-width:6.9000001;stroke-linecap:round;stroke-linejoin:miter;stroke-miterlimit:4;stroke-dasharray:none;stroke-dashoffset:0;stroke-opacity:1"/><path d="M 18.505101,47.206682 7.4749544,58.236832 c -0.039264,0.587218 -0.068705,1.175053 -0.088248,1.763259 2.53e-5,29.057461 23.55577,52.613179 52.613276,52.613189 C 80.020154,112.58603 98.29,101.19897 107.13211,83.237218 L 78.030972,50.754025 59.147827,70.671839 Z" id="path15473" style="fill:#009688;fill-opacity:1;fill-rule:evenodd;stroke:none;stroke-width:1px;stroke-linecap:butt;stroke-linejoin:miter;stroke-opacity:1"/><path d="m 72.542025,49.751574 a 6.7921839,6.7921736 0 0 1 -6.792183,6.792173 6.7921839,6.7921736 0 0 1 -6.792186,-6.792173 6.7921839,6.7921736 0 0 1 6.792186,-6.792173 6.7921839,6.7921736 0 0 1 6.792183,6.792173 z" id="circle15475" style="opacity:1;fill:#fff59d;fill-opacity:1;stroke:none;stroke-width:6.9000001;stroke-linecap:round;stroke-linejoin:miter;stroke-miterlimit:4;stroke-dasharray:none;stroke-dashoffset:0;stroke-opacity:1"/><path d="M 50.121355,34.123279 9.5202532,74.724309 A 52.613297,52.613218 0 0 0 59.999982,112.61328 52.613297,52.613218 0 0 0 110.85989,73.212379 L 84.151234,46.503758 76.22722,60.228615 50.121355,34.123279 Z" id="path15477" style="fill:#00897b;fill-rule:evenodd;stroke:none;stroke-width:1px;stroke-linecap:butt;stroke-linejoin:miter;stroke-opacity:1"/></svg>